<svg xmlns="http://www.w3.org/2000/svg" version="1.1" xmlns:xlink="http://www.w3.org/1999/xlink" xmlns:svgjs="http://svgjs.dev/svgjs" width="128" height="128" viewBox="0 0 128 128"><g transform="matrix(0.8046875,0,0,0.8046875,12.221578124999994,26.716933131740575)"><svg viewBox="0 0 96 69" data-background-color="#ffffff" preserveAspectRatio="xMidYMid meet" height="92" width="128" xmlns="http://www.w3.org/2000/svg" xmlns:xlink="http://www.w3.org/1999/xlink"><g id="tight-bounds" transform="matrix(1,0,0,1,0.25950000000000273,0.24926620730975912)"><svg viewBox="0 0 95.481 68.50146758538047" height="68.50146758538047" width="95.481"><g><svg viewBox="0 0 95.481 68.50146758538047" height="68.50146758538047" width="95.481"><g><svg viewBox="0 0 95.481 68.50146758538047" height="68.50146758538047" width="95.481"><g id="textblocktransform"><svg viewBox="0 0 95.481 68.50146758538047" height="68.50146758538047" width="95.481" id="textblock"><g><svg viewBox="0 0 95.481 68.50146758538047" height="68.50146758538047" width="95.481"><g><svg viewBox="0 0 95.481 68.50146758538047" height="68.50146758538047" width="95.481"><g><svg xmlns="http://www.w3.org/2000/svg" xmlns:xlink="http://www.w3.org/1999/xlink" version="1.1" x="0" y="0" viewBox="81.3 209.5 834.5 598.7" style="enable-background:new 0 0 1000 1000;" xml:space="preserve" height="68.50146758538047" width="95.481" class="icon-icon-0" data-fill-palette-color="accent" id="icon-0"><g fill="#aba944" data-fill-palette-color="accent"><g fill="#aba944" data-fill-palette-color="accent"><g fill="#aba944" data-fill-palette-color="accent"><g fill="#aba944" data-fill-palette-color="accent"><path d="M246.8 699.1C246.8 697.1 246.7 694.2 246.8 690.5 246.9 683.1 247.4 672.4 248.9 659.6 249.6 653.2 250.6 646.3 251.8 639 253.1 631.7 254.6 624.1 256.6 616.2 258.5 608.4 260.8 600.3 263.5 592.3S269.3 576.2 272.9 568.3 280.4 552.8 284.8 545.4C289.1 538.1 293.9 531.2 298.9 524.8S309.2 512.5 314.5 507.2 325.3 497.3 330.5 493.3 340.8 486 345.3 483.1C347.6 481.8 349.8 480.4 351.8 479.3 353.9 478.2 355.7 477.1 357.5 476.3 359.2 475.4 360.8 474.7 362.2 474 363.6 473.4 364.7 472.9 365.7 472.4 367.4 471.7 368.4 471.2 368.6 471.1 368.4 471.2 367.3 471.5 365.6 472.1 364.6 472.4 363.4 472.8 361.9 473.3 360.5 473.8 358.8 474.4 357 475.1S353.2 476.6 351 477.5 346.5 479.5 344 480.6C339.1 483 333.6 485.8 327.8 489.4 322 492.9 316 497.1 309.9 502 303.8 506.8 297.7 512.4 291.7 518.5 285.8 524.6 280 531.4 274.6 538.6S264.2 553.5 259.5 561.4C254.9 569.3 250.7 577.5 246.9 585.7S239.8 602.2 236.9 610.2C234 618.3 231.5 626.2 229.3 633.8S225.4 648.6 223.9 655.4C220.9 668.9 219.2 680.3 218.2 688.4 217.7 692.4 217.4 695.7 217.2 697.9 217.2 698.3 217.1 698.7 217.1 699.1H158.8C158.8 532.6 310.9 397.7 498.6 397.7S838.4 532.6 838.4 699.1z" fill="#aba944" data-fill-palette-color="accent"></path></g></g><g fill="#aba944" data-fill-palette-color="accent"><g fill="#aba944" data-fill-palette-color="accent"><path d="M892.5 764.2H104.6C91.7 764.2 81.3 753.8 81.3 740.9S91.7 717.6 104.6 717.6H892.5C905.4 717.6 915.8 728 915.8 740.9S905.4 764.2 892.5 764.2" fill="#aba944" data-fill-palette-color="accent"></path></g></g><g fill="#aba944" data-fill-palette-color="accent"><g fill="#aba944" data-fill-palette-color="accent"><circle cx="496.3" cy="357.3" r="33" fill="#aba944" data-fill-palette-color="accent"></circle></g></g></g><g fill="#aba944" data-fill-palette-color="accent"><path d="M888.4 808.2H429.4C421.1 808.2 414.4 801.5 414.4 793.2S421.1 778.2 429.4 778.2H888.4C896.7 778.2 903.4 784.9 903.4 793.2S896.7 808.2 888.4 808.2" fill="#aba944" data-fill-palette-color="accent"></path></g><path d="M664.9 277.6C671.9 297 670.1 313.6 661.9 324.8 654.5 336.1 640.7 342 641.4 342.1 640.6 342 646.5 335.2 646.1 323 646.4 310.9 640.3 293.4 633.3 274S628.1 238 636.3 226.8C643.7 215.5 657.5 209.6 656.8 209.5 657.6 209.6 651.7 216.4 652.1 228.6 651.8 240.7 657.9 258.2 664.9 277.6" fill="#aba944" data-fill-palette-color="accent"></path><path d="M670.3 343.8C663.2 363.1 664.9 379.7 673 391 680.4 402.3 694.2 408.3 693.4 408.4 694.2 408.3 688.3 401.4 688.8 389.2 688.6 377.1 694.7 359.6 701.9 340.2 709 320.9 707.3 304.3 699.2 293 691.8 281.7 678 275.7 678.8 275.6 678 275.7 683.9 282.6 683.4 294.8 683.6 306.9 677.4 324.4 670.3 343.8" fill="#aba944" data-fill-palette-color="accent"></path><path d="M143.2 541.2C151.9 558.6 152 574.4 145.5 585.9 139.7 597.3 127.4 604.4 128.1 604.4 127.4 604.4 132.2 597.3 130.4 585.9 129.4 574.5 121.7 558.7 113 541.2S104.2 508 110.7 496.5C116.5 485.1 128.8 478 128.1 478 128.8 478 124 485.1 125.8 496.5 126.9 508 134.5 523.8 143.2 541.2" fill="#aba944" data-fill-palette-color="accent"></path></g></svg></g></svg></g></svg></g></svg></g></svg></g></svg></g><defs></defs></svg><rect width="95.481" height="68.50146758538047" fill="none" stroke="none" visibility="hidden"></rect></g></svg></g></svg>